<?xml version="1.0" encoding="utf-8"?>
<!-- Generator: Adobe Illustrator 25.0.1, SVG Export Plug-In . SVG Version: 6.00 Build 0)  -->
<svg version="1.1" id="Capa_1" xmlns="http://www.w3.org/2000/svg" xmlns:xlink="http://www.w3.org/1999/xlink" x="0px" y="0px"
	 viewBox="0 0 32 32" style="enable-background:new 0 0 32 32;" xml:space="preserve">
<style type="text/css">
	.st0{fill:#E4272B;}
	.st1{fill:none;stroke:#E4272B;stroke-width:3;stroke-miterlimit:10;}
</style>
<path class="st0" d="M8.48,4.69c1.55-0.34,3.09-0.68,4.88-1.07c0,2.98,0,5.68,0,8.37c1.45-0.35,2.71-0.86,4-0.94
	c3.25-0.2,5.07,1.16,5.67,4.38c0.32,1.76,0.43,3.65,0.14,5.4c-0.86,5.32-7.03,8.05-11.79,5.29c-0.42-0.24-0.67-1.09-0.67-1.66
	c-0.05-4.97,0.03-9.95-0.06-14.92c-0.03-1.76,1.23-4.29-2.74-4.33C8.1,5.04,8.29,4.87,8.48,4.69z M20.75,18.48
	c-0.25-1.25-0.38-2.66-0.84-3.95c-0.58-1.66-2.04-1.96-3.61-1.66c-2.04,0.38-2.92,1.32-2.92,3.03c-0.01,2.55-0.04,5.09,0.03,7.64
	c0.01,0.48,0.37,1.2,0.76,1.37c2.39,1,5.12-0.24,5.92-2.7C20.46,21.06,20.52,19.83,20.75,18.48z"/>
<rect x="0.5" y="0.5" class="st1" width="31" height="31"/>
</svg>
