<svg id="Capa_1" data-name="Capa 1" xmlns="http://www.w3.org/2000/svg" viewBox="0 0 141.73 141.73"><defs><style>.cls-1{fill:#fff;}</style></defs><path class="cls-1" d="M112.73,2.83H29A26.17,26.17,0,0,0,2.83,29v83.73A26.17,26.17,0,0,0,29,138.9H70.87a5.24,5.24,0,0,0,5.23-5.24V91.8a5.23,5.23,0,0,0-5.23-5.23H65.63V76.1h5.24a5.23,5.23,0,0,0,5.23-5.23V52.55A13.08,13.08,0,0,1,89.18,39.47h13.09V49.93H97A10.46,10.46,0,0,0,86.57,60.4V70.87A5.23,5.23,0,0,0,91.8,76.1h9L98.18,86.57H91.8a5.23,5.23,0,0,0-5.23,5.23v20.93a5.23,5.23,0,1,0,10.46,0V97h5.24a5.23,5.23,0,0,0,5.23-4l5.23-20.93a5.2,5.2,0,0,0-5.23-6.49H97V60.4H107.5a5.23,5.23,0,0,0,5.23-5.23V34.23A5.23,5.23,0,0,0,107.5,29H89.18A23.61,23.61,0,0,0,65.63,52.55V65.63H60.4a5.24,5.24,0,0,0-5.23,5.24V91.8A5.23,5.23,0,0,0,60.4,97h5.23v31.4H29a15.7,15.7,0,0,1-15.7-15.7V29A15.7,15.7,0,0,1,29,13.3h83.73A15.7,15.7,0,0,1,128.43,29v83.73a15.7,15.7,0,0,1-15.7,15.7H91.8a5.24,5.24,0,0,0,0,10.47h20.93a26.17,26.17,0,0,0,26.17-26.17V29A26.17,26.17,0,0,0,112.73,2.83Z"/></svg>