<svg id="Capa_1" data-name="Capa 1" xmlns="http://www.w3.org/2000/svg" viewBox="0 0 141.73 141.73"><defs><style>.cls-1{fill:#fff;}</style></defs><path class="cls-1" d="M138.9,36.85v68a9.18,9.18,0,0,0-.28,1.15,35.24,35.24,0,0,1-3,10.52c-5.22,11.16-13.77,18.34-25.76,21.33-1.65.41-3.35.68-5,1h-68c-1.21-.22-2.43-.42-3.63-.67A37.58,37.58,0,0,1,2.85,101.17q0-30.28,0-60.58a40.89,40.89,0,0,1,.64-7.25A37.48,37.48,0,0,1,32.7,3.66a40,40,0,0,1,8-.79c20.1-.07,40.2,0,60.3-.05A36.45,36.45,0,0,1,116.48,6c11.2,5.18,18.39,13.76,21.39,25.77C138.29,33.47,138.56,35.17,138.9,36.85ZM15,70.87H15q0,14.82,0,29.63a27.84,27.84,0,0,0,1.28,8.88A25.69,25.69,0,0,0,41,126.8c19.93-.12,39.86,0,59.78-.09a30,30,0,0,0,8.59-1.29,25.38,25.38,0,0,0,17.44-24.65c-.12-19.93,0-39.87-.09-59.8a30.1,30.1,0,0,0-1.29-8.59,25.39,25.39,0,0,0-24.65-17.44C80.83,15.06,60.9,15,41,15a24.9,24.9,0,0,0-12.15,2.79c-8.44,4.6-13.42,11.68-13.72,21.36C14.79,49.69,15,60.28,15,70.87Z"/><path class="cls-1" d="M70.89,35.79a35.08,35.08,0,1,1-35.09,35A35.15,35.15,0,0,1,70.89,35.79Zm-.08,58A22.91,22.91,0,1,0,48,70.78,22.86,22.86,0,0,0,70.81,93.78Z"/><path class="cls-1" d="M107.46,43.26a8.88,8.88,0,0,1-8.94-8.78,8.89,8.89,0,1,1,8.94,8.78Z"/></svg>